<svg xmlns="http://www.w3.org/2000/svg" viewBox="0 0 88.35 89.43"><title>Asset 5</title><g id="Layer_2" data-name="Layer 2"><g id="Layer_1-2" data-name="Layer 1"><rect width="88.35" height="89.43" rx="6" ry="6" style="fill:#3bd2a2"/><circle cx="43.92" cy="44.4" r="36.43" style="fill:#fff"/><path d="M75.56,26.36A6.29,6.29,0,0,1,72.1,29.3a10.62,10.62,0,0,1-5.55,1.45c-11.07,0-13.4-13.54-7-19.25A36.44,36.44,0,0,0,13,25.17,7.09,7.09,0,0,1,19.34,30c2,4.4.36,10.55-4.89,12.05a7.34,7.34,0,0,1-2.77.51,6.85,6.85,0,0,1-4.06-1.22c-.09,1-.14,2-.14,3.07a36.41,36.41,0,0,0,47.6,34.67,6.71,6.71,0,0,1-1.15-1.72,8.06,8.06,0,0,1-.32-6.25,6.51,6.51,0,0,1,3-3.78,7.38,7.38,0,0,1,7.85.17c.17.11.32.23.47.35l.09.06.06.05a6.89,6.89,0,0,1,2.43,4.16,36.36,36.36,0,0,0,8-45.76Z" style="fill:#fff"/><circle cx="43.92" cy="44.4" r="31.03" style="fill:#3bd2a2"/><circle cx="66.92" cy="19.8" r="9.22" style="fill:#8268fc"/><ellipse cx="60.53" cy="73.65" rx="5.71" ry="5.96" style="fill:#ff4f5d"/><ellipse cx="11.99" cy="33.76" rx="7.22" ry="7.33" style="fill:#fbb03b"/><path d="M24,31.72h4.41v10.1h10V31.72h4.43v25H38.41V45.52h-10V56.74H24Z" style="fill:#fff"/><path d="M24,33.22h4.41l-1.5-1.5v10.1a1.52,1.52,0,0,0,1.5,1.5h10a1.52,1.52,0,0,0,1.5-1.5V31.72l-1.5,1.5h4.43l-1.5-1.5v25l1.5-1.5H38.41l1.5,1.5V45.52a1.52,1.52,0,0,0-1.5-1.5h-10a1.52,1.52,0,0,0-1.5,1.5V56.74l1.5-1.5H24l1.5,1.5v-25a1.5,1.5,0,0,0-3,0v25a1.52,1.52,0,0,0,1.5,1.5h4.41a1.52,1.52,0,0,0,1.5-1.5V45.52L28.39,47h10l-1.5-1.5V56.74a1.52,1.52,0,0,0,1.5,1.5h4.43a1.52,1.52,0,0,0,1.5-1.5v-25a1.52,1.52,0,0,0-1.5-1.5H38.41a1.52,1.52,0,0,0-1.5,1.5v10.1l1.5-1.5h-10l1.5,1.5V31.72a1.52,1.52,0,0,0-1.5-1.5H24A1.5,1.5,0,0,0,24,33.22Z" style="fill:#fff"/><path d="M47.5,53.52,60.4,35.4H48.16V31.72H65.58v3.62L52.92,53.06H66.19l-.59,3.68H47.5Z" style="fill:#fff"/><path d="M48.8,54.28,61.7,36.16a1.51,1.51,0,0,0-1.3-2.26H48.16l1.5,1.5V31.72l-1.5,1.5H65.58l-1.5-1.5c0,2.39.34,2.47-.44,3.77-1.25,2.07-2.85,4-4.26,6L51.62,52.31a1.51,1.51,0,0,0,1.3,2.26H66.19l-1.45-1.9-.59,3.68,1.45-1.1H47.5l1.5,1.5V53.52a1.5,1.5,0,0,0-3,0v3.23a1.52,1.52,0,0,0,1.5,1.5H65.6A1.51,1.51,0,0,0,67,57.14l.59-3.68a1.52,1.52,0,0,0-1.45-1.9H52.92l1.3,2.26,8.59-12c1.19-1.67,3-3.52,3.86-5.41.64-1.46.42-3.06.42-4.67a1.52,1.52,0,0,0-1.5-1.5H48.16a1.52,1.52,0,0,0-1.5,1.5V35.4a1.52,1.52,0,0,0,1.5,1.5H60.4l-1.3-2.26L46.21,52.76C45.08,54.34,47.68,55.84,48.8,54.28Z" style="fill:#fff"/><text></text></g></g></svg>